<?xml version="1.0" standalone="no"?>
<svg xmlns:xlink="http://www.w3.org/1999/xlink" id="wave" style="transform:rotate(0deg); transition: 0.3s" viewBox="0 0 1440 100" version="1.1" xmlns="http://www.w3.org/2000/svg"><defs><linearGradient id="sw-gradient-0" x1="0" x2="0" y1="1" y2="0"><stop stop-color="rgba(187, 134, 252, 1)" offset="0%"/><stop stop-color="rgba(187, 134, 252, 1)" offset="100%"/></linearGradient></defs><path style="transform:translate(0, 0px); opacity:1" fill="url(#sw-gradient-0)" d="M0,10L21.8,21.7C43.6,33,87,57,131,70C174.5,83,218,87,262,86.7C305.5,87,349,83,393,80C436.4,77,480,73,524,63.3C567.3,53,611,37,655,25C698.2,13,742,7,785,6.7C829.1,7,873,13,916,23.3C960,33,1004,47,1047,55C1090.9,63,1135,67,1178,58.3C1221.8,50,1265,30,1309,26.7C1352.7,23,1396,37,1440,43.3C1483.6,50,1527,50,1571,41.7C1614.5,33,1658,17,1702,18.3C1745.5,20,1789,40,1833,55C1876.4,70,1920,80,1964,71.7C2007.3,63,2051,37,2095,26.7C2138.2,17,2182,23,2225,31.7C2269.1,40,2313,50,2356,58.3C2400,67,2444,73,2487,75C2530.9,77,2575,73,2618,60C2661.8,47,2705,23,2749,23.3C2792.7,23,2836,47,2880,53.3C2923.6,60,2967,50,3011,53.3C3054.5,57,3098,73,3120,81.7L3141.8,90L3141.8,100L3120,100C3098.2,100,3055,100,3011,100C2967.3,100,2924,100,2880,100C2836.4,100,2793,100,2749,100C2705.5,100,2662,100,2618,100C2574.5,100,2531,100,2487,100C2443.6,100,2400,100,2356,100C2312.7,100,2269,100,2225,100C2181.8,100,2138,100,2095,100C2050.9,100,2007,100,1964,100C1920,100,1876,100,1833,100C1789.1,100,1745,100,1702,100C1658.2,100,1615,100,1571,100C1527.3,100,1484,100,1440,100C1396.4,100,1353,100,1309,100C1265.5,100,1222,100,1178,100C1134.5,100,1091,100,1047,100C1003.6,100,960,100,916,100C872.7,100,829,100,785,100C741.8,100,698,100,655,100C610.9,100,567,100,524,100C480,100,436,100,393,100C349.1,100,305,100,262,100C218.2,100,175,100,131,100C87.3,100,44,100,22,100L0,100Z"/></svg>